<?xml version="1.0" encoding="utf-8"?>
<!-- Generator: Adobe Illustrator 23.0.2, SVG Export Plug-In . SVG Version: 6.00 Build 0)  -->
<svg version="1.1" id="Layer_1" xmlns="http://www.w3.org/2000/svg" xmlns:xlink="http://www.w3.org/1999/xlink" x="0px" y="0px"
	 viewBox="0 0 179 36" style="enable-background:new 0 0 179 36;" xml:space="preserve">
<style type="text/css">
	.st0{fill:none;stroke:#DADCE0;}
	.st1{enable-background:new    ;}
	.st2{fill:#666666;}
	.st3{fill:#EF6C00;}
	.st4{fill:#FF9800;}
	.st5{opacity:0.1;fill:#BF360C;enable-background:new    ;}
	.st6{opacity:0.1;fill:#FFFFFF;enable-background:new    ;}
	.st7{fill:none;}
</style>
<title>df_deploy_button</title>
<desc>Created with Sketch.</desc>
<g id="Page-1">
	<g id="df_deploy_button">
		<g id="State">
			<g id="bg">
				<path id="Shape" class="st0" d="M3.6,0.5C1.9,0.5,0.5,2.1,0.5,4v28c0,1.9,1.4,3.5,3.1,3.5h171.7c1.7,0,3.1-1.6,3.1-3.5V4
					c0-1.9-1.4-3.5-3.1-3.5H3.6z"/>
			</g>
		</g>
		<g class="st1">
			<path class="st2" d="M52,12h1.8l3.8,10h-1.7l-0.9-2.6h-4L49.9,22h-1.7L52,12z M54.4,18l-1.1-3l-0.4-1.2h-0.1L52.4,15l-1.1,3H54.4
				z"/>
			<path class="st2" d="M59.7,21.7c-0.5-0.3-0.9-0.8-1.2-1.4s-0.5-1.2-0.5-2c0-0.7,0.2-1.4,0.5-2c0.3-0.6,0.7-1,1.2-1.4
				c0.5-0.3,1.1-0.5,1.8-0.5c0.5,0,1,0.1,1.4,0.3c0.4,0.2,0.7,0.5,0.9,0.8h0.1l-0.1-1V12h1.5v10h-1.5v-0.9h-0.1
				c-0.2,0.3-0.5,0.6-0.9,0.8c-0.4,0.2-0.9,0.3-1.4,0.3C60.8,22.2,60.3,22.1,59.7,21.7z M62.7,20.5c0.3-0.2,0.6-0.5,0.8-0.8
				c0.2-0.4,0.3-0.8,0.3-1.2c0-0.5-0.1-0.9-0.3-1.2c-0.2-0.4-0.5-0.6-0.8-0.8c-0.3-0.2-0.7-0.3-1-0.3c-0.4,0-0.7,0.1-1,0.3
				c-0.3,0.2-0.6,0.5-0.8,0.8c-0.2,0.4-0.3,0.8-0.3,1.2c0,0.5,0.1,0.9,0.3,1.2c0.2,0.4,0.5,0.6,0.8,0.8c0.3,0.2,0.7,0.3,1,0.3
				C62.1,20.8,62.4,20.7,62.7,20.5z"/>
			<path class="st2" d="M68.3,21.7c-0.5-0.3-0.9-0.8-1.2-1.4s-0.5-1.2-0.5-2c0-0.7,0.2-1.4,0.5-2c0.3-0.6,0.7-1,1.2-1.4
				c0.5-0.3,1.1-0.5,1.8-0.5c0.5,0,1,0.1,1.4,0.3c0.4,0.2,0.7,0.5,0.9,0.8h0.1l-0.1-1V12h1.5v10h-1.5v-0.9h-0.1
				c-0.2,0.3-0.5,0.6-0.9,0.8c-0.4,0.2-0.9,0.3-1.4,0.3C69.4,22.2,68.8,22.1,68.3,21.7z M71.3,20.5c0.3-0.2,0.6-0.5,0.8-0.8
				c0.2-0.4,0.3-0.8,0.3-1.2c0-0.5-0.1-0.9-0.3-1.2c-0.2-0.4-0.5-0.6-0.8-0.8c-0.3-0.2-0.7-0.3-1-0.3c-0.4,0-0.7,0.1-1,0.3
				c-0.3,0.2-0.6,0.5-0.8,0.8c-0.2,0.4-0.3,0.8-0.3,1.2c0,0.5,0.1,0.9,0.3,1.2c0.2,0.4,0.5,0.6,0.8,0.8c0.3,0.2,0.7,0.3,1,0.3
				C70.7,20.8,71,20.7,71.3,20.5z"/>
			<path class="st2" d="M81,22.1c-0.3-0.1-0.5-0.2-0.7-0.4c-0.4-0.4-0.6-1-0.6-1.7v-3.8h-1.2v-1.4h1.2v-2h1.5v2H83v1.4h-1.7v3.4
				c0,0.4,0.1,0.7,0.2,0.8c0.1,0.2,0.4,0.3,0.7,0.3c0.2,0,0.3,0,0.4-0.1c0.1,0,0.3-0.1,0.4-0.2V22c-0.3,0.1-0.7,0.2-1.1,0.2
				C81.5,22.2,81.2,22.2,81,22.1z"/>
			<path class="st2" d="M85.6,21.7c-0.6-0.3-1-0.8-1.3-1.4c-0.3-0.6-0.5-1.2-0.5-1.9c0-0.7,0.2-1.4,0.5-1.9c0.3-0.6,0.8-1,1.3-1.4
				c0.6-0.3,1.2-0.5,1.9-0.5c0.7,0,1.4,0.2,1.9,0.5s1,0.8,1.3,1.4c0.3,0.6,0.5,1.2,0.5,1.9c0,0.7-0.2,1.4-0.5,1.9
				c-0.3,0.6-0.8,1-1.3,1.4c-0.6,0.3-1.2,0.5-1.9,0.5C86.8,22.2,86.1,22.1,85.6,21.7z M88.6,20.5c0.3-0.2,0.6-0.5,0.8-0.8
				c0.2-0.4,0.3-0.8,0.3-1.3c0-0.5-0.1-0.9-0.3-1.3c-0.2-0.4-0.5-0.6-0.8-0.8c-0.3-0.2-0.7-0.3-1.1-0.3c-0.4,0-0.8,0.1-1.1,0.3
				c-0.3,0.2-0.6,0.5-0.8,0.8c-0.2,0.4-0.3,0.8-0.3,1.3c0,0.5,0.1,0.9,0.3,1.3c0.2,0.4,0.5,0.6,0.8,0.8s0.7,0.3,1.1,0.3
				C87.9,20.8,88.2,20.7,88.6,20.5z"/>
			<path class="st2" d="M96.2,12h3.2c1,0,1.9,0.2,2.7,0.6c0.8,0.4,1.4,1,1.8,1.8c0.4,0.8,0.6,1.6,0.6,2.6c0,1-0.2,1.9-0.6,2.6
				c-0.4,0.8-1,1.4-1.8,1.8c-0.8,0.4-1.7,0.6-2.7,0.6h-3.2V12z M99.4,20.5c1.1,0,2-0.3,2.6-0.9c0.6-0.6,0.9-1.5,0.9-2.6
				c0-1.1-0.3-2-0.9-2.6c-0.6-0.6-1.5-0.9-2.6-0.9h-1.6v7H99.4z"/>
			<path class="st2" d="M106.2,13.6c-0.2-0.2-0.3-0.4-0.3-0.7c0-0.3,0.1-0.5,0.3-0.7c0.2-0.2,0.4-0.3,0.7-0.3s0.5,0.1,0.7,0.3
				c0.2,0.2,0.3,0.4,0.3,0.7c0,0.3-0.1,0.5-0.3,0.7c-0.2,0.2-0.4,0.3-0.7,0.3S106.4,13.8,106.2,13.6z M106.2,14.9h1.5V22h-1.5V14.9z
				"/>
			<path class="st2" d="M110.4,21.9c-0.4-0.2-0.7-0.5-0.9-0.9c-0.2-0.4-0.3-0.8-0.3-1.3c0-0.7,0.3-1.3,0.8-1.8
				c0.6-0.4,1.3-0.6,2.1-0.6c0.4,0,0.8,0,1.1,0.1s0.6,0.2,0.8,0.3v-0.4c0-0.4-0.2-0.8-0.5-1.1c-0.3-0.3-0.7-0.4-1.3-0.4
				c-0.4,0-0.7,0.1-1,0.2c-0.3,0.2-0.6,0.4-0.8,0.7l-1.1-0.8c0.3-0.4,0.7-0.8,1.2-1c0.5-0.2,1.1-0.4,1.7-0.4c1,0,1.8,0.3,2.4,0.8
				c0.6,0.5,0.8,1.2,0.8,2.1V22H114v-0.9h-0.1c-0.2,0.3-0.5,0.6-0.9,0.8s-0.8,0.3-1.3,0.3C111.3,22.2,110.8,22.1,110.4,21.9z
				 M113.1,20.7c0.3-0.2,0.5-0.4,0.7-0.7c0.2-0.3,0.3-0.6,0.3-1c-0.2-0.1-0.5-0.2-0.7-0.3c-0.3-0.1-0.6-0.1-0.9-0.1
				c-0.6,0-1,0.1-1.3,0.3c-0.3,0.2-0.4,0.5-0.4,0.9c0,0.3,0.1,0.6,0.4,0.8s0.6,0.3,1,0.3C112.4,21,112.8,20.9,113.1,20.7z"/>
			<path class="st2" d="M117.2,12h1.5v10h-1.5V12z"/>
			<path class="st2" d="M121.9,21.7c-0.6-0.3-1-0.8-1.3-1.4c-0.3-0.6-0.5-1.2-0.5-1.9c0-0.7,0.2-1.4,0.5-1.9c0.3-0.6,0.8-1,1.3-1.4
				c0.6-0.3,1.2-0.5,1.9-0.5s1.4,0.2,1.9,0.5s1,0.8,1.3,1.4c0.3,0.6,0.5,1.2,0.5,1.9c0,0.7-0.2,1.4-0.5,1.9c-0.3,0.6-0.8,1-1.3,1.4
				c-0.6,0.3-1.2,0.5-1.9,0.5S122.5,22.1,121.9,21.7z M124.9,20.5c0.3-0.2,0.6-0.5,0.8-0.8s0.3-0.8,0.3-1.3c0-0.5-0.1-0.9-0.3-1.3
				s-0.5-0.6-0.8-0.8c-0.3-0.2-0.7-0.3-1.1-0.3c-0.4,0-0.8,0.1-1.1,0.3c-0.3,0.2-0.6,0.5-0.8,0.8c-0.2,0.4-0.3,0.8-0.3,1.3
				c0,0.5,0.1,0.9,0.3,1.3c0.2,0.4,0.5,0.6,0.8,0.8s0.7,0.3,1.1,0.3C124.2,20.8,124.6,20.7,124.9,20.5z"/>
			<path class="st2" d="M130,24.6c-0.6-0.4-1-0.9-1.2-1.4l1.4-0.6c0.1,0.4,0.4,0.7,0.7,0.9c0.3,0.2,0.7,0.3,1.2,0.3
				c0.7,0,1.2-0.2,1.5-0.6c0.4-0.4,0.6-1,0.6-1.7v-0.7h-0.1c-0.2,0.3-0.5,0.6-0.9,0.8s-0.8,0.3-1.3,0.3c-0.6,0-1.2-0.2-1.7-0.5
				c-0.5-0.3-0.9-0.7-1.2-1.3c-0.3-0.6-0.5-1.2-0.5-1.9c0-0.7,0.2-1.4,0.5-1.9c0.3-0.6,0.7-1,1.2-1.3s1.1-0.5,1.7-0.5
				c0.5,0,0.9,0.1,1.3,0.3c0.4,0.2,0.7,0.5,0.9,0.8h0.1v-0.9h1.5v6.7c0,0.8-0.2,1.4-0.4,2c-0.3,0.5-0.7,1-1.3,1.2s-1.2,0.4-1.9,0.4
				C131.3,25.2,130.6,25,130,24.6z M133.2,20.3c0.3-0.2,0.6-0.4,0.8-0.8c0.2-0.3,0.3-0.8,0.3-1.2c0-0.7-0.2-1.3-0.6-1.7
				c-0.4-0.4-0.9-0.6-1.5-0.6c-0.4,0-0.7,0.1-1,0.3c-0.3,0.2-0.6,0.4-0.8,0.8c-0.2,0.3-0.3,0.7-0.3,1.2c0,0.5,0.1,0.9,0.3,1.2
				c0.2,0.3,0.4,0.6,0.8,0.8c0.3,0.2,0.7,0.3,1,0.3C132.6,20.6,132.9,20.5,133.2,20.3z"/>
		</g>
		<g class="st1">
			<path class="st2" d="M138.4,16.2h-1.3v-1.4h1.3v-0.6c0-0.7,0.2-1.3,0.7-1.8c0.5-0.4,1.1-0.7,1.8-0.7c0.4,0,0.8,0.1,1.1,0.2v1.5
				c-0.2-0.1-0.3-0.1-0.5-0.2s-0.3-0.1-0.5-0.1c-0.3,0-0.6,0.1-0.8,0.3c-0.2,0.2-0.3,0.5-0.3,0.8v0.4h1.8v1.4h-1.8V22h-1.5V16.2z"/>
		</g>
		<g class="st1">
			<path class="st2" d="M143.2,12h1.5v10h-1.5V12z"/>
			<path class="st2" d="M147.9,21.7c-0.6-0.3-1-0.8-1.3-1.4c-0.3-0.6-0.5-1.2-0.5-1.9c0-0.7,0.2-1.4,0.5-1.9c0.3-0.6,0.8-1,1.3-1.4
				c0.6-0.3,1.2-0.5,1.9-0.5c0.7,0,1.4,0.2,1.9,0.5s1,0.8,1.3,1.4c0.3,0.6,0.5,1.2,0.5,1.9c0,0.7-0.2,1.4-0.5,1.9
				c-0.3,0.6-0.8,1-1.3,1.4c-0.6,0.3-1.2,0.5-1.9,0.5C149.1,22.2,148.5,22.1,147.9,21.7z M150.9,20.5c0.3-0.2,0.6-0.5,0.8-0.8
				c0.2-0.4,0.3-0.8,0.3-1.3c0-0.5-0.1-0.9-0.3-1.3c-0.2-0.4-0.5-0.6-0.8-0.8c-0.3-0.2-0.7-0.3-1.1-0.3s-0.8,0.1-1.1,0.3
				c-0.3,0.2-0.6,0.5-0.8,0.8s-0.3,0.8-0.3,1.3c0,0.5,0.1,0.9,0.3,1.3s0.5,0.6,0.8,0.8s0.7,0.3,1.1,0.3S150.6,20.7,150.9,20.5z"/>
			<path class="st2" d="M154.1,14.9h1.7l1.4,5.1h0.1l1.6-5.1h1.6L162,20h0.1l1.4-5.1h1.6l-2.3,7.1h-1.6l-1.6-5.1h0l-1.6,5.1h-1.6
				L154.1,14.9z"/>
		</g>
		<g id="Group-2" transform="translate(12.000000, 6.000000)">
			<g id="Group" transform="translate(3.000000, 0.000000)">
				<polygon class="st3" points="0.1,5.4 0.1,16 4.6,18.6 4.6,23.9 18.4,16 18.4,5.4 9.2,10.7 				"/>
				<polygon class="st4" points="0.1,5.4 9.2,0.1 18.4,5.4 9.2,10.7 				"/>
				<polygon class="st5" points="18.2,5.3 9.1,10.5 0.1,5.4 0.1,5.4 9.2,10.7 18.4,5.4 				"/>
				<polygon class="st6" points="9.2,10.7 0.1,5.4 0.1,5.5 9.2,10.8 				"/>
			</g>
			<rect id="Rectangle" y="0" class="st7" width="24" height="24"/>
		</g>
	</g>
</g>
</svg>
